<?xml version="1.0" encoding="utf-8"?><svg viewBox="0 0 512 512" xmlns="http://www.w3.org/2000/svg" xmlns:xlink="http://www.w3.org/1999/xlink"><style>:root>svg{display:none}:root>svg:target{display:block}</style><svg aria-hidden="true" data-prefix="fab" data-icon="facebook" viewBox="0 0 512 512" class="asvg-inline--fa afa-facebook afa-w-16 afa-9x" id="iconsocials--facebook-round" xmlns="http://www.w3.org/2000/svg"><path fill="currentColor" d="M504 256C504 119 393 8 256 8S8 119 8 256c0 123.78 90.69 226.38 209.25 245V327.69h-63V256h63v-54.64c0-62.15 37-96.48 93.67-96.48 27.14 0 55.52 4.84 55.52 4.84v61h-31.28c-30.8 0-40.41 19.12-40.41 38.73V256h68.78l-11 71.69h-57.78V501C413.31 482.38 504 379.78 504 256z"/></svg><svg fill="none" viewBox="0 0 30 30" id="iconsocials--fb" xmlns="http://www.w3.org/2000/svg"><path d="M25.605 0H4.395A4.4 4.4 0 000 4.395v21.21A4.4 4.4 0 004.395 30h8.847V19.395H9.727V14.12h3.515v-3.574a5.28 5.28 0 015.274-5.274h5.332v5.274h-5.332v3.574h5.332l-.88 5.274h-4.452V30h7.09A4.4 4.4 0 0030 25.605V4.395A4.4 4.4 0 0025.605 0z" fill="#21243D"/></svg><svg fill="none" viewBox="0 0 30 30" id="iconsocials--insta" xmlns="http://www.w3.org/2000/svg"><path d="M21.72 0H8.28C3.714 0 0 3.714 0 8.279V21.72C0 26.286 3.714 30 8.279 30H21.72C26.286 30 30 26.286 30 21.721V8.28C30 3.714 26.286 0 21.72 0zm5.618 21.721a5.624 5.624 0 01-5.617 5.617H8.28a5.623 5.623 0 01-5.617-5.617V8.28a5.624 5.624 0 015.617-5.617H21.72a5.624 5.624 0 015.617 5.617V21.72z" fill="#21243D"/><path d="M15 7.27c-4.262 0-7.73 3.468-7.73 7.73 0 4.263 3.468 7.73 7.73 7.73 4.262 0 7.73-3.467 7.73-7.73 0-4.262-3.468-7.73-7.73-7.73zm0 12.798A5.074 5.074 0 019.932 15 5.074 5.074 0 0115 9.932 5.074 5.074 0 0120.069 15 5.074 5.074 0 0115 20.068zM23.055 5.013a1.96 1.96 0 00-1.38.572 1.962 1.962 0 00-.573 1.38c0 .513.21 1.017.574 1.38.362.363.866.572 1.379.572a1.97 1.97 0 001.38-.571c.364-.364.571-.868.571-1.38a1.96 1.96 0 00-.571-1.381 1.96 1.96 0 00-1.38-.572z" fill="#21243D"/></svg><svg aria-hidden="true" data-prefix="fab" data-icon="instagram-square" viewBox="0 0 448 512" class="dsvg-inline--fa dfa-instagram-square dfa-w-14 dfa-9x" id="iconsocials--instag" xmlns="http://www.w3.org/2000/svg"><path fill="currentColor" d="M224 202.66A53.34 53.34 0 10277.36 256 53.38 53.38 0 00224 202.66zm124.71-41a54 54 0 00-30.41-30.41c-21-8.29-71-6.43-94.3-6.43s-73.25-1.93-94.31 6.43a54 54 0 00-30.41 30.41c-8.28 21-6.43 71.05-6.43 94.33s-1.85 73.27 6.47 94.34a54 54 0 0030.41 30.41c21 8.29 71 6.43 94.31 6.43s73.24 1.93 94.3-6.43a54 54 0 0030.41-30.41c8.35-21 6.43-71.05 6.43-94.33s1.92-73.26-6.43-94.33zM224 338a82 82 0 1182-82 81.9 81.9 0 01-82 82zm85.38-148.3a19.14 19.14 0 1119.13-19.14 19.1 19.1 0 01-19.09 19.18zM400 32H48A48 48 0 000 80v352a48 48 0 0048 48h352a48 48 0 0048-48V80a48 48 0 00-48-48zm-17.12 290c-1.29 25.63-7.14 48.34-25.85 67s-41.4 24.63-67 25.85c-26.41 1.49-105.59 1.49-132 0-25.63-1.29-48.26-7.15-67-25.85s-24.63-41.42-25.85-67c-1.49-26.42-1.49-105.61 0-132 1.29-25.63 7.07-48.34 25.85-67s41.47-24.56 67-25.78c26.41-1.49 105.59-1.49 132 0 25.63 1.29 48.33 7.15 67 25.85s24.63 41.42 25.85 67.05c1.49 26.32 1.49 105.44 0 131.88z"/></svg><svg aria-hidden="true" data-prefix="fab" data-icon="instagram-square" viewBox="0 0 448 512" class="esvg-inline--fa efa-instagram-square efa-w-14 efa-7x" id="iconsocials--instagram" xmlns="http://www.w3.org/2000/svg"><path fill="currentColor" d="M224 202.66A53.34 53.34 0 10277.36 256 53.38 53.38 0 00224 202.66zm124.71-41a54 54 0 00-30.41-30.41c-21-8.29-71-6.43-94.3-6.43s-73.25-1.93-94.31 6.43a54 54 0 00-30.41 30.41c-8.28 21-6.43 71.05-6.43 94.33s-1.85 73.27 6.47 94.34a54 54 0 0030.41 30.41c21 8.29 71 6.43 94.31 6.43s73.24 1.93 94.3-6.43a54 54 0 0030.41-30.41c8.35-21 6.43-71.05 6.43-94.33s1.92-73.26-6.43-94.33zM224 338a82 82 0 1182-82 81.9 81.9 0 01-82 82zm85.38-148.3a19.14 19.14 0 1119.13-19.14 19.1 19.1 0 01-19.09 19.18zM400 32H48A48 48 0 000 80v352a48 48 0 0048 48h352a48 48 0 0048-48V80a48 48 0 00-48-48zm-17.12 290c-1.29 25.63-7.14 48.34-25.85 67s-41.4 24.63-67 25.85c-26.41 1.49-105.59 1.49-132 0-25.63-1.29-48.26-7.15-67-25.85s-24.63-41.42-25.85-67c-1.49-26.42-1.49-105.61 0-132 1.29-25.63 7.07-48.34 25.85-67s41.47-24.56 67-25.78c26.41-1.49 105.59-1.49 132 0 25.63 1.29 48.33 7.15 67 25.85s24.63 41.42 25.85 67.05c1.49 26.32 1.49 105.44 0 131.88z"/></svg><svg fill="none" viewBox="0 0 30 30" id="iconsocials--linkedin" xmlns="http://www.w3.org/2000/svg"><path d="M25.605 0H4.395A4.4 4.4 0 000 4.395v21.21A4.4 4.4 0 004.395 30h21.21A4.4 4.4 0 0030 25.605V4.395A4.4 4.4 0 0025.605 0zm-15 23.79H7.09V11.483h3.515V23.79zm0-14.063H7.09V6.21h3.515v3.516zM22.91 23.789h-3.515v-7.031A1.76 1.76 0 0017.637 15a1.76 1.76 0 00-1.758 1.758v7.031h-3.516V11.484h3.516v.663c.92-.286 1.52-.663 2.637-.663 2.384.003 4.394 2.142 4.394 4.67v7.635z" fill="#21243D"/></svg><svg fill="none" viewBox="0 0 37 30" id="iconsocials--twitter" xmlns="http://www.w3.org/2000/svg"><path d="M36.923 3.552a15.782 15.782 0 01-4.361 1.195 7.526 7.526 0 003.33-4.184 15.126 15.126 0 01-4.8 1.832A7.585 7.585 0 0025.561 0c-4.19 0-7.564 3.402-7.564 7.572 0 .6.05 1.176.175 1.726C11.88 8.99 6.312 5.975 2.571 1.38a7.62 7.62 0 00-1.036 3.826 7.58 7.58 0 003.362 6.29 7.475 7.475 0 01-3.42-.931v.083c0 3.678 2.624 6.733 6.065 7.437a7.558 7.558 0 01-1.985.25c-.485 0-.974-.028-1.433-.13.98 2.998 3.764 5.202 7.073 5.274a15.21 15.21 0 01-9.385 3.228c-.621 0-1.217-.028-1.812-.104C3.353 28.765 7.327 30 11.612 30c13.93 0 21.545-11.538 21.545-21.54 0-.335-.012-.658-.028-.978 1.503-1.067 2.765-2.398 3.794-3.93z" fill="#21243D"/></svg><svg aria-hidden="true" data-prefix="fab" data-icon="twitter-square" viewBox="0 0 448 512" class="hsvg-inline--fa hfa-twitter-square hfa-w-14 hfa-7x" id="iconsocials--twitter-fill" xmlns="http://www.w3.org/2000/svg"><path fill="currentColor" d="M400 32H48C21.5 32 0 53.5 0 80v352c0 26.5 21.5 48 48 48h352c26.5 0 48-21.5 48-48V80c0-26.5-21.5-48-48-48zm-48.9 158.8c.2 2.8.2 5.7.2 8.5 0 86.7-66 186.6-186.6 186.6-37.2 0-71.7-10.8-100.7-29.4 5.3.6 10.4.8 15.8.8 30.7 0 58.9-10.4 81.4-28-28.8-.6-53-19.5-61.3-45.5 10.1 1.5 19.2 1.5 29.6-1.2-30-6.1-52.5-32.5-52.5-64.4v-.8c8.7 4.9 18.9 7.9 29.6 8.3a65.447 65.447 0 01-29.2-54.6c0-12.2 3.2-23.4 8.9-33.1 32.3 39.8 80.8 65.8 135.2 68.6-9.3-44.5 24-80.6 64-80.6 18.9 0 35.9 7.9 47.9 20.7 14.8-2.8 29-8.3 41.6-15.8-4.9 15.2-15.2 28-28.8 36.1 13.2-1.4 26-5.1 37.8-10.2-8.9 13.1-20.1 24.7-32.9 34z"/></svg></svg>