<svg xmlns="http://www.w3.org/2000/svg" width="300" height="300" shape-rendering="geometricPrecision" text-rendering="geometricPrecision" image-rendering="optimizeQuality" fill-rule="evenodd" clip-rule="evenodd" viewBox="0 0 300 299.999"><path fill="none" stroke="#FEFEFE" stroke-width="16" stroke-miterlimit="22.926" d="M152.273 22.586h0c68.623 0 124.769 56.146 124.769 124.769v1.119c0 68.623-56.146 124.768-124.769 124.768h0c-68.622 0-124.768-56.145-124.768-124.768v-1.119c0-68.623 56.146-124.769 124.768-124.769z"/><rect fill="none" stroke="#2E3843" stroke-width="16" stroke-miterlimit="22.926" x="37.105" y="32.186" width="230.337" height="231.456" rx="103.359" ry="156.82"/><path fill="none" stroke="#E73845" stroke-width="20" stroke-miterlimit="22.926" d="M-172.452 54.622c15.009-10.983 33.475-17.489 53.39-17.489s38.381 6.506 53.39 17.489m3.292 144.902c-15.56 12.506-35.285 20.014-56.682 20.014-21.397 0-41.122-7.508-56.681-20.014"/><path fill="#1C3557" stroke="#1C3557" stroke-width=".756" stroke-miterlimit="22.926" d="M156.851 440.248h-9.935v-16.767h12.435c17.427 0 22.409 1.536 24.312 2.276 6.164 2.397 11.916 3.952 16.402 7.305 6.814 5.23 12.155 12.416 16.093 21.518 3.904 9.142 5.856 19.122 5.856 29.941 0 11.537-1.918 21.916-5.753 31.179-3.869 9.221-9.245 16.487-16.196 21.796-4.349 3.274-9.76 5.669-16.265 7.226-6.472 1.557-14.622 2.356-24.449 2.356h-58.348v-17.214h17.787v-.032h38.061c17.19 0 29.346-3.514 36.434-10.54 7.088-6.986 10.649-18.603 10.649-34.851 0-15.649-4.257-26.346-10.855-33.853-5.595-6.367-13.135-10.34-36.228-10.34z"/><path fill="#1C3557" fill-rule="nonzero" d="M118.896 423.011v106.821h-17.804v-45.786l-66.659 45.786H8.349l77.459-51.134-85.947-55.687h29.845l71.386 47.993v-47.993z"/><path fill="none" stroke="#1C3557" stroke-width=".288" stroke-miterlimit="22.926" d="M118.896 423.011v106.821h-17.804v-45.786l-66.659 45.786H8.349l77.459-51.134-85.947-55.687h29.845l71.386 47.993v-47.993z"/><path fill="#2E3843" d="M476.515-78.944c-6.368 9.685-11.296 22.442-15.521 35.6 38.067 5.261 74.791 20.037 84.895 60.146 3.644 14.469 1.918 26.588-4.836 34.637l-17.686 21.077c-5.672 6.76-14.889 10.649-27.448 10.649-23.551 0-45.477-35.559-62.126-35.671-6.88 15.129-12.65 22.83-14.989 25.618L401.118 94.19l-1.005 1.136c9.965-19.848 22.906-50.301 27.324-66.674 3.038-11.261 8.479-26.528 13.275-42.532.838-2.796 1.701-5.6 2.596-8.386-16.38-2.265-33.008-2.769-47.871-2.769l17.686-21.078c12.029 0 25.215.332 38.488 1.658 2.194-4.87 4.583-9.404 7.217-13.411l17.687-21.078zm-22.624 58.411c-3.4 10.568-6.662 20.3-8.768 28.108-2.428 8.998-7.431 22.251-13.1 35.658l10.035-11.959c17.272-20.583 43.236 30.813 71.547 30.813 6.032 0 11.292-.898 15.759-2.578 1.228-6.29.862-13.598-1.161-21.63-9.162-36.372-40.218-51.909-74.312-58.412z"/><path fill="none" d="M467.672-68.405c-7.716 11.736-13.32 27.982-18.117 43.987-4.797 16.004-10.237 31.27-13.275 42.531-4.418 16.373-17.359 46.826-27.324 66.675 1.052-1.104 9.347-10.283 19.064-33.849 16.985-41.191 45.427 21.687 76.743 21.687 27.512 0 38.988-18.664 32.283-45.286-14.451-57.367-83.361-62.914-132.766-62.914"/><path fill="#E73845" d="M527.352-34.044c-11.004-7.847-20.941-7.822-31.461.673a205.28 205.28 0 00-2.048 3.197c-8.309 13.235-10.351 17.664-12.979 20.795L463.18 11.696c-1.857 2.213-4.005 3.777-8.866 7.343-.629.461-1.398.931-2.275 1.405 2.982.594 6.592 1.168 10.918 1.719 28.421 3.622 2.637 60.099 16.771 74.257 7.7 7.712 23.237 9.044 48.894-5.62 20.28-11.59 24.796-15.119 42.432-30.274L553.37 81.6c-17.636 15.156-22.152 18.684-42.432 30.275-25.657 14.664-41.194 13.332-48.894 5.619-14.133-14.158 11.65-70.635-16.771-74.256-20.586-2.624-25.024-5.76-22.241-9.077l17.684-21.074c4.131-4.924 24.173-10.245 30.933-14.876 1.265-2.088 2.746-4.5 4.51-7.31 3.878-6.177 7.587-11.399 11.186-15.688l17.684-21.075c13.856-16.513 26.077-19.19 40.006-9.257l-17.683 21.075z"/><path fill="none" d="M536.194-44.581c-17.548-12.514-32.383-5.015-51.193 24.944C470.819 2.953 474.893-.11 463.156 8.502c-10.619 7.791-60.727 17.612-9.041 24.198 28.421 3.622 2.638 60.099 16.771 74.257 7.7 7.712 23.237 9.044 48.894-5.62 20.279-11.59 24.796-15.119 42.432-30.274"/><path fill="#2E3843" d="M170.582 157.004l44.311-48.908a12.973 12.973 0 012.249-2.203 13.815 13.815 0 012.833-1.439c1.079-.405 2.383-.675 3.867-.81 1.484-.134 3.283-.179 5.397-.179 2.203 0 4.047.045 5.531.179 1.484.135 2.698.36 3.597.675.899.315 1.574.719 1.979 1.169.405.495.585 1.125.585 1.934 0 1.034-.27 2.113-.855 3.148-.585 1.079-1.484 2.293-2.833 3.687l-42.721 42.99 48.117 62.596c1.124 1.529 1.934 2.698 2.429 3.643.494.944.719 1.798.719 2.563 0 .72-.18 1.349-.54 1.844-.359.539-.944.989-1.754 1.349-.854.314-2.023.584-3.507.764-1.484.18-3.373.27-5.666.27-2.339 0-4.317-.045-5.846-.18s-2.833-.36-3.867-.675c-1.08-.314-1.934-.764-2.564-1.303a10.11 10.11 0 01-1.798-2.069l-49.663-65.205v-3.84z"/><path fill="#E73845" fill-rule="nonzero" d="M168.732 224.968c0 .72-.135 1.304-.45 1.844-.315.539-.854.944-1.574 1.259-.764.315-1.754.54-2.968.72-1.259.18-2.743.27-4.496.27-1.844 0-3.373-.09-4.587-.27-1.259-.18-2.249-.405-3.058-.72-.764-.315-1.349-.72-1.709-1.259a3.644 3.644 0 01-.495-1.844v-15.784c-6.25 6.791-12.726 12.052-19.426 15.829-6.745 3.778-14.075 5.666-22.08 5.666-8.679 0-16.098-1.708-22.214-5.081-6.161-3.373-11.153-7.96-14.975-13.716-3.777-5.756-6.565-12.501-8.319-20.28-1.754-7.78-2.653-15.964-2.653-24.553 0-10.208 1.079-19.427 3.283-27.611 2.203-8.229 5.441-15.245 9.758-21.045 4.272-5.801 9.623-10.253 16.009-13.356 6.34-3.103 13.67-4.677 22.034-4.677 6.926 0 13.266 1.529 19.022 4.542 5.756 3.058 11.422 7.51 17.043 13.401V49.545c0-.629.135-1.214.45-1.798.315-.585.899-.989 1.798-1.304.855-.315 1.979-.585 3.328-.81 1.394-.225 3.103-.315 5.217-.315 2.203 0 4.002.09 5.396.315 1.394.225 2.518.495 3.283.81.809.315 1.394.719 1.798 1.304.405.584.585 1.169.585 1.798v175.423zm-21.855-83.506c-5.846-7.33-11.512-12.907-16.998-16.729-5.486-3.822-11.197-5.756-17.133-5.756-5.531 0-10.208 1.304-14.075 3.957-3.868 2.654-6.97 6.116-9.399 10.433-2.383 4.272-4.137 9.174-5.216 14.615-1.124 5.441-1.664 10.972-1.664 16.593 0 5.981.45 11.827 1.394 17.538.9 5.711 2.518 10.793 4.767 15.244 2.293 4.452 5.306 8.005 9.084 10.703 3.732 2.653 8.499 4.002 14.164 4.002 2.879 0 5.667-.404 8.365-1.169 2.653-.809 5.396-2.113 8.184-3.957 2.788-1.844 5.756-4.227 8.814-7.195 3.058-2.923 6.296-6.521 9.713-10.838v-47.441z"/><path fill="none" d="M99.067 115.734l27 8.208v12.856m0 0v12.855l55.167-60.889a15.967 15.967 0 012.778-2.722 17.18 17.18 0 013.499-1.777c1.334-.5 2.945-.834 4.778-1 1.834-.167 4.056-.223 6.667-.223 2.722 0 5 .056 6.833.223 1.834.166 3.333.444 4.445.833 1.111.389 1.944.889 2.444 1.444.5.612.722 1.389.722 2.389 0 1.278-.333 2.611-1.055 3.889-.722 1.333-1.834 2.833-3.5 4.556l-52.778 53.111 59.444 77.333c1.389 1.889 2.389 3.333 3 4.5.612 1.167.889 2.222.889 3.167 0 .889-.222 1.666-.666 2.277-.445.667-1.167 1.223-2.167 1.667-1.056.389-2.5.722-4.333.945-1.834.222-4.167.333-7 .333-2.889 0-5.334-.056-7.223-.222-1.889-.167-3.5-.445-4.777-.834-1.334-.389-2.389-.944-3.167-1.611a12.442 12.442 0 01-2.222-2.555l-61.778-81.112v9.537m0 0v3.399l-27 8.883"/></svg>